<?xml version="1.0" encoding="UTF-8"?>
<svg id="Layer_1" xmlns="http://www.w3.org/2000/svg" version="1.1" viewBox="0 0 400 400">
  <!-- Generator: Adobe Illustrator 29.2.1, SVG Export Plug-In . SVG Version: 2.1.0 Build 116)  -->
  
  <path class="st0" d="M139.9,10.4l20.7,161.6,164.3-126.8S248.1-23.5,139.9,10.4Z"/>
  <path class="st0" d="M5.6,157.2l150.4,62.9L128.3,14.6S30.3,46.6,5.6,157.2Z"/>
  <path class="st0" d="M65.7,346.8l129.8-98.7L3.4,169.3s-21.2,100.8,62.3,177.5Z"/>
  <path class="st0" d="M260.1,389.6l-20.7-161.6-164.3,126.8s76.8,68.7,185,34.9Z"/>
  <path class="st0" d="M394.4,242.8l-150.4-62.9,27.7,205.6s98-32,122.7-142.6Z"/>
  <path class="st0" d="M334.3,53.2l-129.8,98.7,192,78.8s21.2-100.8-62.3-177.5Z"/>
</svg>