<svg width="60" height="48" viewBox="0 0 60 48" fill="none" xmlns="http://www.w3.org/2000/svg">
<path id="crow" d="M57.2637 5.61287C58.0728 5.11798 58.8029 4.51769 59.5143 3.62872C59.5236 3.61497 59.5143 3.59664 59.4957 3.59664C57.3381 4.07779 55.5804 5.14089 53.6553 5.77784C53.6367 5.78242 53.6228 5.75951 53.6367 5.74576C54.5435 5.02633 55.52 4.40772 56.4267 3.70204C57.3707 2.97345 58.3844 2.26777 58.854 0.86557C58.854 0.851823 58.8401 0.838076 58.8261 0.842658C55.7711 2.27693 53.4554 4.52686 50.5584 5.8145C50.5398 5.82366 50.5212 5.80075 50.5352 5.787C52.3673 3.88991 55.1991 2.94595 55.9013 0.0270021C55.9013 0.00867271 55.8873 -0.000491968 55.8734 0.00867271C53.3019 2.07531 50.7305 4.13736 48.159 6.20399C48.1451 6.21774 48.1218 6.20399 48.1311 6.18108C48.6798 5.16839 50.5584 2.73516 50.5166 1.43836C50.498 1.43836 50.498 1.43836 50.484 1.4292C49.833 2.57478 49.0983 3.56457 48.7077 4.01364C47.5824 5.31044 46.4385 6.57516 45.0854 7.62452C43.0347 9.21459 41.2119 11.0292 38.7009 12.129C36.6549 13.0225 34.874 14.7088 33.558 16.6563C33.2372 17.1329 32.9303 17.6644 32.7908 18.2097C32.3769 19.8181 32.0096 21.4449 31.6934 23.0762C31.3865 24.6662 31.6794 25.207 33.1116 26.0684C33.3999 26.2426 33.5999 26.4763 33.5115 26.8245C33.3767 27.3698 33.1163 27.851 32.6094 28.1534C32.2002 28.3963 32.084 27.9884 31.8794 27.7914C31.3539 27.2919 30.5541 27.0307 29.7497 27.0078C28.9452 27.0307 28.1408 27.2919 27.62 27.7914C27.4154 27.9884 27.2991 28.3963 26.8899 28.1534C26.3831 27.8555 26.1273 27.3698 25.9878 26.8245C25.8995 26.4763 26.0994 26.2426 26.3924 26.0684C27.8246 25.2115 28.1175 24.6662 27.8106 23.0762C27.4944 21.4449 27.1271 19.8227 26.7132 18.2097C26.5737 17.6598 26.2668 17.1329 25.946 16.6563C24.63 14.7088 22.8491 13.0225 20.8031 12.129C18.2874 11.0292 16.4646 9.21459 14.4186 7.62452C13.0655 6.57516 11.9216 5.31044 10.7963 4.01364C10.4057 3.56457 9.67099 2.57936 9.02464 1.4292C9.00604 1.4292 9.00605 1.4292 8.99209 1.43836C8.95024 2.73516 10.8288 5.1638 11.3775 6.18108C11.3868 6.19941 11.3636 6.21316 11.3496 6.20399C8.78285 4.14194 6.2114 2.07531 3.63995 0.00867271C3.626 -0.000491968 3.6074 0.00867271 3.61205 0.0270021C4.3142 2.95053 7.14605 3.88991 8.97814 5.787C8.99209 5.80075 8.97814 5.82366 8.9549 5.8145C6.05795 4.53602 3.74225 2.2861 0.687198 0.851823C0.673248 0.847241 0.654648 0.860988 0.659298 0.874735C1.12895 2.27693 2.14265 2.98261 3.0866 3.7112C3.99335 4.4123 4.96985 5.03092 5.8766 5.75493C5.89055 5.76867 5.8766 5.79158 5.858 5.787C3.93755 5.14547 2.17985 4.07779 0.0222484 3.60123C0.00364843 3.60123 -0.00565156 3.61956 0.00364843 3.6333C0.715098 4.51769 1.44515 5.11798 2.25425 5.61746C3.02615 6.08944 3.84455 6.4881 4.62575 6.96008C4.64435 6.96924 4.6304 6.99674 4.6118 6.99674C3.18425 6.72638 1.91945 5.8649 0.226848 5.84657C0.212898 5.84657 0.203598 5.8649 0.212898 5.87865C1.7102 7.51913 3.6074 8.20189 5.40695 9.06796C5.42555 9.07712 5.41625 9.10462 5.393 9.10003C4.30955 8.83426 3.2168 8.56848 1.8962 8.24314C1.8776 8.24314 1.8683 8.25688 1.8776 8.27063C3.16565 10.0073 4.8629 10.6122 6.84845 11.2492C6.84845 11.2675 6.84845 11.2629 6.84845 11.2812C6.3509 11.3775 6.08585 11.5058 6.0533 11.6799C6.0254 11.8265 6.1556 11.9732 6.42065 12.1931C7.4576 13.0546 8.24345 13.0775 8.38295 13.6228C8.4527 13.8977 8.4713 13.9619 8.37365 14.2597C8.24345 14.6538 8.9828 14.8142 9.3455 15.0525C9.83375 15.3733 10.5312 15.4741 10.3359 16.363C10.2476 16.78 10.7823 16.9221 11.0939 17.1054C12.2982 17.8111 13.5584 18.5259 13.8606 19.9877C14.1489 21.3853 15.3486 22.2559 15.7578 23.5665C15.8369 23.8185 15.9996 24.0247 15.9438 24.3271C15.902 24.5471 15.9066 24.8724 16.0415 25.0053C16.6506 25.6056 17.3621 26.0639 17.3807 27.104C17.39 27.5119 18.1479 27.4019 18.585 27.4431C18.9849 27.4844 19.4732 27.5348 19.2639 28.0618C18.7338 29.3952 19.5801 29.354 20.4543 29.2807C20.4636 29.2807 20.4729 29.2898 20.4729 29.299C20.4218 30.5408 20.6496 30.747 21.8493 30.44C22.3004 30.3254 22.2864 30.6049 22.3562 30.7928C22.5608 31.3564 22.6677 31.9384 22.8723 32.502C22.9886 32.8182 23.4024 32.9007 23.6303 32.6533C23.8209 32.4425 24.1697 32.5066 24.2766 32.7678C24.351 32.9557 24.3789 33.1573 24.4301 33.3452C24.6533 34.225 24.8021 35.1506 26.132 34.1059C26.1459 34.0967 26.1645 34.1059 26.1599 34.1196C26.0622 35.114 26.2482 35.8151 26.7365 36.4658C26.8992 36.6765 26.8574 36.7682 26.862 36.8094C26.8853 37.2402 26.3598 37.7259 25.9785 37.6617C25.7972 37.6297 25.7786 37.4922 25.5089 37.2402C24.6719 36.4566 23.793 36.0579 23.2722 37.2402C23.2629 37.2585 23.2722 37.2722 23.2955 37.2631C23.6442 37.1439 24.0069 37.089 24.2208 37.1714C24.3231 37.2081 24.3696 37.2906 24.3929 37.3593C24.4487 37.5197 24.3975 37.6938 24.1557 37.7855C23.6117 37.9917 23.0676 38.0742 22.9514 38.8532C22.9514 38.8761 22.9607 38.8761 22.9653 38.8761C23.0955 38.8119 24.5091 38.1429 25.1462 38.6882C25.3089 38.8257 25.3973 38.9906 25.4159 39.0273C25.7135 39.6551 25.3043 40.4707 25.2531 40.457C25.202 40.4478 25.4298 39.6367 24.8439 39.2701C23.9511 38.7111 22.8863 40.3653 21.2216 42.4869C20.9751 42.8031 20.645 43.2751 21.1751 43.7517C21.9051 44.4115 24.6998 41.5109 24.7509 41.4743C24.7044 41.5476 23.2908 43.4813 22.97 43.8617C22.7514 44.1962 22.4166 44.6819 22.8398 45.076C22.8398 45.076 22.97 45.2272 23.1792 45.2593C23.8814 45.3647 24.3603 44.6911 25.3787 43.6188C25.3926 43.605 25.4159 43.6188 25.4066 43.6371C25.1648 44.0999 24.909 44.5536 24.6951 45.0256C24.4301 45.6167 24.4812 46.1574 25.2531 46.2536C26.4621 46.4049 27.4851 47.0143 28.4895 47.5733C28.9499 47.83 29.3544 47.972 29.7543 47.9949C30.1542 47.972 30.5588 47.8254 31.0191 47.5733C32.0235 47.0143 33.0465 46.4049 34.2555 46.2536C35.0274 46.1574 35.0786 45.6167 34.8135 45.0256C34.6043 44.549 34.3485 44.0953 34.1067 43.6371C34.0974 43.6188 34.1207 43.6005 34.1346 43.6188C35.1576 44.6865 35.6366 45.3601 36.3341 45.2593C36.548 45.2272 36.6735 45.076 36.6735 45.076C37.0967 44.6773 36.7619 44.1962 36.5433 43.8617C36.2225 43.4813 34.8042 41.5476 34.7624 41.4743C34.8089 41.5063 37.6082 44.4115 38.3382 43.7517C38.8683 43.2751 38.5382 42.7985 38.2917 42.4869C36.627 40.3653 35.5622 38.7111 34.6694 39.2701C34.0881 39.6322 34.3113 40.4432 34.2602 40.457C34.209 40.4707 33.7998 39.6551 34.0974 39.0273C34.116 38.9906 34.2044 38.8257 34.3671 38.6882C35.0042 38.1429 36.4178 38.8119 36.548 38.8761C36.548 38.8761 36.5666 38.8761 36.5619 38.8532C36.4457 38.0787 35.9016 37.9917 35.3576 37.7855C35.1158 37.6938 35.0646 37.5197 35.1204 37.3593C35.1437 37.2906 35.1902 37.2081 35.2925 37.1714C35.511 37.089 35.8737 37.1439 36.2225 37.2631C36.2411 37.2722 36.2504 37.2631 36.2457 37.2402C35.7249 36.0533 34.8461 36.452 34.0091 37.2402C33.7347 37.4922 33.7208 37.6343 33.5394 37.6617C33.1628 37.7259 32.6373 37.2402 32.6559 36.8094C32.6559 36.7682 32.6187 36.6765 32.7768 36.4658C33.2697 35.8105 33.4557 35.114 33.3534 34.1196C33.3534 34.1059 33.372 34.0921 33.3813 34.1059C34.7112 35.146 34.86 34.2204 35.0832 33.3452C35.1297 33.1573 35.1623 32.9557 35.2367 32.7678C35.339 32.5066 35.6877 32.4425 35.883 32.6533C36.1109 32.9053 36.5247 32.8182 36.6363 32.502C36.8409 31.9384 36.9479 31.3564 37.1525 30.7928C37.2222 30.6049 37.2083 30.3254 37.6593 30.44C38.859 30.747 39.0869 30.5454 39.0357 29.299C39.0357 29.2898 39.045 29.2807 39.0543 29.2807C39.9285 29.3494 40.7748 29.3952 40.2447 28.0618C40.0355 27.5348 40.5237 27.4844 40.9236 27.4431C41.3607 27.4019 42.1187 27.5119 42.128 27.104C42.1512 26.0639 42.858 25.6056 43.4672 25.0053C43.602 24.8724 43.602 24.5471 43.5648 24.3271C43.509 24.0247 43.6718 23.8231 43.7508 23.5665C44.16 22.2559 45.3597 21.3853 45.648 19.9877C45.9503 18.5259 47.2104 17.8065 48.4148 17.1054C48.731 16.9221 49.2657 16.78 49.1727 16.363C48.9774 15.4741 49.6796 15.3733 50.1632 15.0525C50.5259 14.8142 51.2652 14.6538 51.135 14.2597C51.0374 13.9619 51.056 13.8977 51.1257 13.6228C51.2652 13.0775 52.0511 13.0546 53.088 12.1931C53.3531 11.9732 53.4833 11.8265 53.4554 11.6799C53.4228 11.5058 53.1531 11.3775 52.6602 11.2812C52.6602 11.2629 52.6602 11.2675 52.6602 11.2492C54.6458 10.6122 56.343 10.0073 57.6311 8.27063C57.6404 8.25688 57.6311 8.23855 57.6125 8.24314C56.2965 8.5639 55.1991 8.83426 54.1157 9.10003C54.0971 9.10003 54.0831 9.07712 54.1017 9.06796C55.9059 8.19731 57.7985 7.51454 59.2958 5.87865C59.3051 5.86948 59.2958 5.84657 59.2818 5.84657C57.5892 5.8649 56.3244 6.72638 54.8969 6.99674C54.8783 6.99674 54.8643 6.97383 54.8829 6.96008C55.6641 6.4881 56.4825 6.08944 57.2544 5.61746L57.2637 5.61287ZM30.4379 32.5524C30.2147 33.2994 30.0054 34.0554 29.759 34.9398C29.5125 34.0554 29.3033 33.3039 29.0801 32.5524C28.9592 32.14 29.0568 31.8101 29.4056 31.5718C29.5218 31.4939 29.6381 31.4389 29.7543 31.4069C29.8752 31.4389 29.9915 31.4939 30.1031 31.5718C30.4565 31.8101 30.5541 32.14 30.4286 32.5524H30.4379Z" fill="white"/>
</svg>
