<svg width="256" height="252" viewBox="0 0 256 252" fill="none" xmlns="http://www.w3.org/2000/svg">
<g clip-path="url(#clip0_6_277)">
<path d="M233.156 21.3728C236.249 19.4854 239.04 17.1961 241.76 13.8058C241.796 13.7534 241.76 13.6835 241.689 13.6835C233.44 15.5185 226.72 19.5728 219.36 22.002C219.289 22.0194 219.236 21.932 219.289 21.8796C222.756 19.1359 226.489 16.7767 229.956 14.0854C233.564 11.3068 237.44 8.61554 239.236 3.26797C239.236 3.21554 239.182 3.16312 239.129 3.18059C227.449 8.6505 218.596 17.2311 207.52 22.1418C207.449 22.1767 207.378 22.0893 207.431 22.0369C214.436 14.802 225.262 11.202 227.947 0.0699122C227.947 9.23593e-06 227.893 -0.0349422 227.84 9.23313e-06C218.009 7.88156 208.178 15.7456 198.347 23.6272C198.293 23.6796 198.204 23.6272 198.24 23.5398C200.338 19.6777 207.52 10.3981 207.36 5.45244C207.289 5.45244 207.289 5.45244 207.236 5.41749C204.747 9.78642 201.938 13.5612 200.444 15.2738C196.142 20.2194 191.769 25.0427 186.596 29.0447C178.756 35.1088 171.787 42.0291 162.187 46.2233C154.364 49.6311 147.556 56.0622 142.524 63.4893C141.298 65.3068 140.124 67.334 139.591 69.4136C138.009 75.5476 136.604 81.7515 135.396 87.9728C134.222 94.0369 135.342 96.099 140.818 99.3845C141.92 100.049 142.684 100.94 142.347 102.268C141.831 104.348 140.836 106.183 138.898 107.336C137.333 108.262 136.889 106.707 136.107 105.955C134.098 104.05 131.04 103.054 127.964 102.967C124.889 103.054 121.813 104.05 119.822 105.955C119.04 106.707 118.596 108.262 117.031 107.336C115.093 106.2 114.116 104.348 113.582 102.268C113.244 100.94 114.009 100.049 115.129 99.3845C120.604 96.1165 121.724 94.0369 120.551 87.9728C119.342 81.7515 117.938 75.5651 116.356 69.4136C115.822 67.3165 114.649 65.3068 113.422 63.4893C108.391 56.0622 101.582 49.6311 93.76 46.2233C84.1422 42.0291 77.1733 35.1088 69.3511 29.0447C64.1778 25.0427 59.8045 20.2194 55.5022 15.2738C54.0089 13.5612 51.2 9.80389 48.7289 5.41749C48.6578 5.41749 48.6578 5.41749 48.6045 5.45244C48.4445 10.3981 55.6267 19.6602 57.7245 23.5398C57.76 23.6097 57.6711 23.6621 57.6178 23.6272C47.8045 15.7631 37.9733 7.88156 28.1422 9.23313e-06C28.0889 -0.0349422 28.0178 9.23593e-06 28.0356 0.0699122C30.72 11.2194 41.5467 14.802 48.5511 22.0369C48.6045 22.0893 48.5511 22.1767 48.4622 22.1418C37.3867 17.2486 28.5333 8.6505 16.8533 3.18059C16.8 3.16312 16.7289 3.21554 16.7467 3.26797C18.5422 8.61554 22.4178 11.3068 26.0267 14.0854C29.4933 16.7592 33.2267 19.1185 36.6933 21.8796C36.7467 21.932 36.6933 22.0194 36.6222 22.002C29.2622 19.5728 22.56 15.5185 14.2933 13.6835C14.2222 13.6835 14.1867 13.7534 14.2222 13.8058C16.9422 17.1786 19.7333 19.468 22.8267 21.3728C25.7778 23.1728 28.9067 24.6932 31.8933 26.4932C31.9645 26.5282 31.9111 26.633 31.84 26.633C26.3822 25.602 21.5467 22.3165 15.0756 22.2466C15.0222 22.2466 14.9867 22.3165 15.0222 22.3689C20.7467 28.6253 28 31.2291 34.88 34.5321C34.9511 34.567 34.9156 34.6719 34.8267 34.6544C30.6845 33.6408 26.5067 32.6272 21.4578 31.3864C21.3867 31.3864 21.3511 31.4388 21.3867 31.4913C26.3111 38.1146 32.8 40.4214 40.3911 42.8505C40.3911 42.9204 40.3911 42.9029 40.3911 42.9728C38.4889 43.3398 37.4756 43.8291 37.3511 44.4932C37.2445 45.0524 37.7422 45.6117 38.7556 46.4505C42.72 49.7359 45.7245 49.8233 46.2578 51.9029C46.5245 52.9515 46.5956 53.1961 46.2222 54.3321C45.7245 55.835 48.5511 56.4466 49.9378 57.3554C51.8045 58.5787 54.4711 58.9631 53.7245 62.3534C53.3867 63.9437 55.4311 64.4855 56.6222 65.1845C61.2267 67.8757 66.0445 70.602 67.2 76.1767C68.3022 81.5068 72.8889 84.8272 74.4533 89.8253C74.7556 90.7864 75.3778 91.5728 75.1645 92.7262C75.0045 93.5651 75.0222 94.8058 75.5378 95.3126C77.8667 97.602 80.5867 99.3495 80.6578 103.317C80.6933 104.872 83.5911 104.452 85.2622 104.61C86.7911 104.767 88.6578 104.959 87.8578 106.969C85.8311 112.054 89.0667 111.897 92.4089 111.617C92.4445 111.617 92.48 111.652 92.48 111.687C92.2845 116.423 93.1556 117.21 97.7422 116.039C99.4667 115.602 99.4133 116.668 99.68 117.384C100.462 119.534 100.871 121.753 101.653 123.903C102.098 125.109 103.68 125.423 104.551 124.48C105.28 123.676 106.613 123.92 107.022 124.917C107.307 125.633 107.413 126.402 107.609 127.118C108.462 130.474 109.031 134.004 114.116 130.019C114.169 129.984 114.24 130.019 114.222 130.072C113.849 133.864 114.56 136.538 116.427 139.019C117.049 139.823 116.889 140.173 116.907 140.33C116.996 141.973 114.987 143.825 113.529 143.581C112.836 143.458 112.764 142.934 111.733 141.973C108.533 138.984 105.173 137.464 103.182 141.973C103.147 142.043 103.182 142.095 103.271 142.06C104.604 141.606 105.991 141.396 106.809 141.711C107.2 141.85 107.378 142.165 107.467 142.427C107.68 143.039 107.484 143.703 106.56 144.052C104.48 144.839 102.4 145.153 101.956 148.124C101.956 148.212 101.991 148.212 102.009 148.212C102.507 147.967 107.911 145.416 110.347 147.495C110.969 148.019 111.307 148.649 111.378 148.788C112.516 151.183 110.951 154.293 110.756 154.241C110.56 154.206 111.431 151.113 109.191 149.715C105.778 147.583 101.707 153.891 95.3422 161.983C94.4 163.188 93.1378 164.988 95.1645 166.806C97.9556 169.322 108.64 158.26 108.836 158.12C108.658 158.4 103.253 165.775 102.027 167.225C101.191 168.501 99.9111 170.353 101.529 171.856C101.529 171.856 102.027 172.433 102.827 172.555C105.511 172.957 107.342 170.388 111.236 166.299C111.289 166.247 111.378 166.299 111.342 166.369C110.418 168.134 109.44 169.864 108.622 171.664C107.609 173.918 107.804 175.981 110.756 176.348C115.378 176.924 119.289 179.249 123.129 181.381C124.889 182.359 126.436 182.901 127.964 182.988C129.493 182.901 131.04 182.342 132.8 181.381C136.64 179.249 140.551 176.924 145.173 176.348C148.124 175.981 148.32 173.918 147.307 171.664C146.507 169.847 145.529 168.117 144.604 166.369C144.569 166.299 144.658 166.229 144.711 166.299C148.622 170.371 150.453 172.94 153.12 172.555C153.938 172.433 154.418 171.856 154.418 171.856C156.036 170.336 154.756 168.501 153.92 167.225C152.693 165.775 147.271 158.4 147.111 158.12C147.289 158.243 157.991 169.322 160.782 166.806C162.809 164.988 161.547 163.171 160.604 161.983C154.24 153.891 150.169 147.583 146.756 149.715C144.533 151.095 145.387 154.188 145.191 154.241C144.996 154.293 143.431 151.183 144.569 148.788C144.64 148.649 144.978 148.019 145.6 147.495C148.036 145.416 153.44 147.967 153.938 148.212C153.938 148.212 154.009 148.212 153.991 148.124C153.547 145.171 151.467 144.839 149.387 144.052C148.462 143.703 148.267 143.039 148.48 142.427C148.569 142.165 148.747 141.85 149.138 141.711C149.973 141.396 151.36 141.606 152.693 142.06C152.764 142.095 152.8 142.06 152.782 141.973C150.791 137.447 147.431 138.967 144.231 141.973C143.182 142.934 143.129 143.476 142.436 143.581C140.996 143.825 138.987 141.973 139.058 140.33C139.058 140.173 138.916 139.823 139.52 139.019C141.404 136.52 142.116 133.864 141.724 130.072C141.724 130.019 141.796 129.967 141.831 130.019C146.916 133.986 147.484 130.456 148.338 127.118C148.516 126.402 148.64 125.633 148.924 124.917C149.316 123.92 150.649 123.676 151.396 124.48C152.267 125.441 153.849 125.109 154.276 123.903C155.058 121.753 155.467 119.534 156.249 117.384C156.516 116.668 156.462 115.602 158.187 116.039C162.773 117.21 163.644 116.441 163.449 111.687C163.449 111.652 163.484 111.617 163.52 111.617C166.862 111.88 170.098 112.054 168.071 106.969C167.271 104.959 169.138 104.767 170.667 104.61C172.338 104.452 175.236 104.872 175.271 103.317C175.36 99.3495 178.062 97.602 180.391 95.3126C180.907 94.8058 180.907 93.5651 180.764 92.7262C180.551 91.5728 181.173 90.8039 181.476 89.8253C183.04 84.8272 187.627 81.5068 188.729 76.1767C189.884 70.602 194.702 67.8583 199.307 65.1845C200.516 64.4855 202.56 63.9437 202.204 62.3534C201.458 58.9631 204.142 58.5787 205.991 57.3554C207.378 56.4466 210.204 55.835 209.707 54.3321C209.333 53.1961 209.404 52.9515 209.671 51.9029C210.204 49.8233 213.209 49.7359 217.173 46.4505C218.187 45.6117 218.684 45.0524 218.578 44.4932C218.453 43.8291 217.422 43.3398 215.538 42.9728C215.538 42.9029 215.538 42.9204 215.538 42.8505C223.129 40.4214 229.618 38.1146 234.542 31.4913C234.578 31.4388 234.542 31.3689 234.471 31.3864C229.44 32.6097 225.244 33.6408 221.102 34.6544C221.031 34.6544 220.978 34.567 221.049 34.5321C227.947 31.2117 235.182 28.6078 240.907 22.3689C240.942 22.334 240.907 22.2466 240.853 22.2466C234.382 22.3165 229.547 25.602 224.089 26.633C224.018 26.633 223.964 26.5456 224.036 26.4932C227.022 24.6932 230.151 23.1728 233.102 21.3728H233.156ZM130.596 124.113C129.742 126.961 128.942 129.845 128 133.217C127.058 129.845 126.258 126.979 125.404 124.113C124.942 122.54 125.316 121.282 126.649 120.373C127.093 120.076 127.538 119.866 127.982 119.744C128.444 119.866 128.889 120.076 129.316 120.373C130.667 121.282 131.04 122.54 130.56 124.113H130.596Z" fill="white"/>
<path d="M86.3467 247.596C86.3467 246.862 86.1689 246.233 85.8133 245.709C85.4578 245.202 84.9067 244.748 84.1422 244.346C83.3778 243.961 82.24 243.542 80.7111 243.14C79.1822 242.738 78.0267 242.301 77.2622 241.882C76.4978 241.462 75.9289 240.973 75.5733 240.414C75.2178 239.854 75.04 239.173 75.04 238.386C75.04 237.128 75.5911 236.097 76.6756 235.311C77.76 234.524 79.1822 234.14 80.9244 234.14C82.0622 234.14 83.0756 234.349 83.9822 234.786C84.8889 235.223 85.5822 235.835 86.08 236.604C86.5778 237.39 86.8267 238.282 86.8267 239.26H86.1689C86.1689 237.967 85.6889 236.883 84.7111 236.045C83.7333 235.188 82.4711 234.769 80.9244 234.769C79.3778 234.769 78.1156 235.118 77.1556 235.782C76.1956 236.464 75.7156 237.32 75.7156 238.351C75.7156 239.382 76.1244 240.239 76.96 240.868C77.7956 241.497 79.1644 242.074 81.0844 242.563C83.0044 243.052 84.4089 243.612 85.2978 244.258C86.4356 245.08 87.0044 246.181 87.0044 247.561C87.0044 248.435 86.7556 249.204 86.2578 249.885C85.76 250.567 85.0489 251.074 84.1244 251.441C83.2 251.808 82.1689 251.983 81.0133 251.983C79.7333 251.983 78.5778 251.773 77.5644 251.353C76.5511 250.934 75.7689 250.34 75.2533 249.571C74.7378 248.802 74.4889 247.893 74.4889 246.827H75.1467C75.1467 248.26 75.6978 249.361 76.7822 250.148C77.8667 250.934 79.2889 251.336 81.0311 251.336C82.5778 251.336 83.8578 250.986 84.8533 250.287C85.8667 249.588 86.3644 248.68 86.3644 247.561L86.3467 247.596Z" fill="white"/>
<path d="M95.4489 244.573L101.653 234.367H102.453L95.7867 245.149V251.755H95.1289V245.149L88.4622 234.367H89.3333L95.4667 244.573H95.4489Z" fill="white"/>
<path d="M115.733 247.596C115.733 246.862 115.556 246.233 115.2 245.709C114.844 245.202 114.293 244.748 113.529 244.346C112.764 243.961 111.627 243.542 110.098 243.14C108.569 242.738 107.413 242.301 106.649 241.882C105.884 241.462 105.316 240.973 104.96 240.414C104.604 239.854 104.427 239.173 104.427 238.386C104.427 237.128 104.978 236.097 106.062 235.311C107.147 234.524 108.569 234.14 110.311 234.14C111.449 234.14 112.462 234.349 113.369 234.786C114.276 235.223 114.969 235.835 115.467 236.604C115.964 237.39 116.213 238.282 116.213 239.26H115.556C115.556 237.967 115.076 236.883 114.098 236.045C113.12 235.188 111.858 234.769 110.311 234.769C108.764 234.769 107.502 235.118 106.542 235.782C105.582 236.464 105.102 237.32 105.102 238.351C105.102 239.382 105.511 240.239 106.347 240.868C107.182 241.497 108.551 242.074 110.471 242.563C112.391 243.052 113.796 243.612 114.684 244.258C115.822 245.08 116.391 246.181 116.391 247.561C116.391 248.435 116.142 249.204 115.644 249.885C115.147 250.567 114.436 251.074 113.511 251.441C112.587 251.808 111.556 251.983 110.4 251.983C109.12 251.983 107.964 251.773 106.951 251.353C105.938 250.934 105.156 250.34 104.64 249.571C104.124 248.802 103.876 247.893 103.876 246.827H104.533C104.533 248.26 105.084 249.361 106.169 250.148C107.253 250.934 108.676 251.336 110.418 251.336C111.964 251.336 113.244 250.986 114.24 250.287C115.253 249.588 115.751 248.68 115.751 247.561L115.733 247.596Z" fill="white"/>
<path d="M131.627 235.014H125.191V251.755H124.533V235.014H118.098V234.367H131.644V235.014H131.627Z" fill="white"/>
<path d="M144.267 243.14H135.396V251.126H145.511V251.773H134.738V234.384H145.511V235.031H135.396V242.511H144.267V243.157V243.14Z" fill="white"/>
<path d="M149.831 234.367L157.102 250.812L164.409 234.367H165.369V251.755H164.711V235.311L157.369 251.755H156.853L149.547 235.398V251.755H148.889V234.367H149.831Z" fill="white"/>
<path d="M180.836 247.596C180.836 246.862 180.658 246.233 180.302 245.709C179.947 245.202 179.396 244.748 178.631 244.346C177.867 243.961 176.729 243.542 175.2 243.14C173.671 242.738 172.516 242.301 171.751 241.882C170.987 241.462 170.418 240.973 170.062 240.414C169.707 239.854 169.529 239.173 169.529 238.386C169.529 237.128 170.08 236.097 171.164 235.311C172.249 234.524 173.671 234.14 175.413 234.14C176.551 234.14 177.564 234.349 178.471 234.786C179.378 235.223 180.071 235.835 180.569 236.604C181.067 237.39 181.316 238.282 181.316 239.26H180.658C180.658 237.967 180.178 236.883 179.2 236.045C178.222 235.188 176.96 234.769 175.413 234.769C173.867 234.769 172.604 235.118 171.644 235.782C170.684 236.464 170.204 237.32 170.204 238.351C170.204 239.382 170.613 240.239 171.449 240.868C172.284 241.497 173.653 242.074 175.573 242.563C177.493 243.052 178.898 243.612 179.787 244.258C180.924 245.08 181.493 246.181 181.493 247.561C181.493 248.435 181.244 249.204 180.747 249.885C180.249 250.567 179.538 251.074 178.613 251.441C177.689 251.808 176.658 251.983 175.502 251.983C174.222 251.983 173.067 251.773 172.053 251.353C171.04 250.934 170.258 250.34 169.742 249.571C169.227 248.802 168.978 247.893 168.978 246.827H169.636C169.636 248.26 170.187 249.361 171.271 250.148C172.356 250.934 173.778 251.336 175.52 251.336C177.067 251.336 178.347 250.986 179.342 250.287C180.356 249.588 180.853 248.68 180.853 247.561L180.836 247.596Z" fill="white"/>
<path d="M11.6089 220.264H27.8578V224.825H11.6089C8.39111 224.825 5.65333 223.724 3.39556 221.487C1.13778 219.268 0 216.577 0 213.414C0 210.251 1.13778 207.559 3.39556 205.34C5.65333 203.12 8.39111 202.002 11.6089 202.002H22.6311V206.563H11.6089C9.67111 206.563 8.03556 207.227 6.68444 208.555C5.33333 209.884 4.65778 211.509 4.65778 213.396C4.65778 215.284 5.33333 216.909 6.68444 218.237C8.03556 219.565 9.68889 220.229 11.6089 220.229V220.264Z" fill="white"/>
<path d="M31.2178 224.825H26.5778V202.019H42.8267C44.7645 202.019 46.4 202.683 47.7511 204.012C49.1022 205.34 49.7778 206.965 49.7778 208.852C49.7778 210.74 49.1022 212.365 47.7511 213.693C46.4 215.021 44.7467 215.685 42.8267 215.685H41.8133L52.1067 233.93H46.88L34.1156 211.124H42.8089C43.4667 211.124 44.0178 210.915 44.4622 210.46C44.9067 210.023 45.1378 209.482 45.1378 208.835C45.1378 208.188 44.9067 207.647 44.4622 207.21C44.0178 206.773 43.4667 206.546 42.8089 206.546H31.2V224.79L31.2178 224.825Z" fill="white"/>
<path d="M62.8622 224.825C59.6444 224.825 56.9067 223.724 54.6489 221.487C52.3911 219.268 51.2533 216.577 51.2533 213.414C51.2533 210.251 52.3911 207.559 54.6489 205.34C56.9067 203.12 59.6444 202.002 62.8622 202.002C66.08 202.002 68.8178 203.12 71.0755 205.34C73.3333 207.559 74.4711 210.251 74.4711 213.414C74.4711 216.577 73.3333 219.268 71.0755 221.487C68.8178 223.707 66.08 224.825 62.8622 224.825ZM62.8622 220.264C64.8 220.264 66.4356 219.6 67.7867 218.272C69.1378 216.944 69.8133 215.318 69.8133 213.431C69.8133 211.544 69.1378 209.918 67.7867 208.59C66.4356 207.262 64.7822 206.598 62.8622 206.598C60.9422 206.598 59.2889 207.262 57.9378 208.59C56.5867 209.918 55.9111 211.544 55.9111 213.431C55.9111 215.318 56.5867 216.944 57.9378 218.272C59.2889 219.6 60.9422 220.264 62.8622 220.264Z" fill="white"/>
<path d="M91.4311 211.596L84.4622 225.961L72.8533 202.019H78.08L84.4622 215.126L88.8178 206.179L91.4311 200.866L94.0444 206.179L98.4 215.126L104.782 202.019H110.009L98.4 225.961L91.4311 211.596Z" fill="white"/>
<path d="M131.876 224.825H102.88L105.209 220.264H131.893C132.551 220.264 133.102 220.054 133.547 219.6C133.991 219.163 134.222 218.621 134.222 217.975C134.222 217.328 133.991 216.786 133.547 216.35C133.102 215.913 132.551 215.685 131.893 215.685H122.613C120.676 215.685 119.04 215.021 117.689 213.693C116.338 212.365 115.662 210.74 115.662 208.852C115.662 206.965 116.338 205.34 117.689 204.012C119.04 202.683 120.693 202.019 122.613 202.019H137.689V206.581H122.613C121.956 206.581 121.404 206.808 120.96 207.245C120.516 207.682 120.284 208.223 120.284 208.87C120.284 209.516 120.516 210.058 120.96 210.495C121.404 210.932 121.956 211.159 122.613 211.159H131.893C133.831 211.159 135.467 211.823 136.818 213.151C138.169 214.48 138.844 216.105 138.844 217.992C138.844 219.88 138.169 221.505 136.818 222.833C135.467 224.161 133.813 224.825 131.893 224.825H131.876Z" fill="white"/>
<path d="M145.902 208.852V224.825H141.262V202.019H145.902L159.822 217.992V202.019H164.462V224.825H159.822L145.902 208.852Z" fill="white"/>
<path d="M192.231 202.019L189.902 206.581H173.653V220.264H199.182L196.853 224.825H169.013V202.019H192.213H192.231ZM201.511 215.703H178.311V211.142H203.84L201.511 215.703Z" fill="white"/>
<path d="M225.156 224.825H196.16L198.489 220.264H225.173C225.831 220.264 226.382 220.054 226.827 219.6C227.271 219.163 227.502 218.621 227.502 217.975C227.502 217.328 227.271 216.786 226.827 216.35C226.382 215.913 225.831 215.685 225.173 215.685H215.893C213.956 215.685 212.32 215.021 210.969 213.693C209.618 212.365 208.942 210.74 208.942 208.852C208.942 206.965 209.618 205.34 210.969 204.012C212.32 202.683 213.973 202.019 215.893 202.019H230.969V206.581H215.893C215.236 206.581 214.684 206.808 214.24 207.245C213.796 207.682 213.564 208.223 213.564 208.87C213.564 209.516 213.796 210.058 214.24 210.495C214.684 210.932 215.236 211.159 215.893 211.159H225.173C227.111 211.159 228.747 211.823 230.098 213.151C231.449 214.48 232.124 216.105 232.124 217.992C232.124 219.88 231.449 221.505 230.098 222.833C228.747 224.161 227.093 224.825 225.173 224.825H225.156Z" fill="white"/>
<path d="M246.72 206.581V233.948H242.08V206.581H230.471V202.019H256V206.581H246.72Z" fill="white"/>
</g>
<defs>
<clipPath id="clip0_6_277">
<rect width="256" height="252" fill="white"/>
</clipPath>
</defs>
</svg>
