<svg width="130" height="48" viewBox="0 0 130 48" fill="none" xmlns="http://www.w3.org/2000/svg">
<g id="Isolation_Mode" clip-path="url(#clip0_4_1898)">
<path id="Vector" d="M57.2647 5.60421C58.0738 5.10932 58.8039 4.50904 59.5153 3.62006C59.5246 3.60631 59.5153 3.58799 59.4967 3.58799C57.3391 4.06913 55.5814 5.13223 53.6563 5.76918C53.6377 5.77376 53.6238 5.75085 53.6377 5.7371C54.5445 5.01768 55.521 4.39906 56.4277 3.69338C57.3717 2.96479 58.3854 2.25911 58.855 0.856912C58.855 0.843165 58.8411 0.829418 58.8271 0.834C55.7721 2.26827 53.4564 4.5182 50.5594 5.80584C50.5408 5.815 50.5222 5.79209 50.5362 5.77834C52.3683 3.88125 55.2001 2.93729 55.9023 0.0183437C55.9023 1.43009e-05 55.8883 -0.00915038 55.8744 1.43e-05C53.3029 2.06665 50.7315 4.1287 48.16 6.19534C48.1461 6.20908 48.1228 6.19534 48.1321 6.17242C48.6808 5.15973 50.5594 2.72651 50.5176 1.4297C50.499 1.4297 50.499 1.4297 50.485 1.42054C49.834 2.56612 49.0993 3.55591 48.7087 4.00498C47.5834 5.30178 46.4395 6.56651 45.0864 7.61586C43.0357 9.20593 41.2129 11.0205 38.7019 12.1203C36.6559 13.0139 34.875 14.7002 33.559 16.6477C33.2382 17.1242 32.9313 17.6558 32.7918 18.2011C32.3779 19.8095 32.0106 21.4362 31.6944 23.0675C31.3875 24.6576 31.6804 25.1983 33.1126 26.0598C33.4009 26.2339 33.6009 26.4676 33.5125 26.8159C33.3777 27.3612 33.1173 27.8423 32.6104 28.1447C32.2012 28.3876 32.085 27.9798 31.8804 27.7827C31.3549 27.2833 30.5551 27.0221 29.7507 26.9992C28.9462 27.0221 28.1418 27.2833 27.621 27.7827C27.4164 27.9798 27.3001 28.3876 26.8909 28.1447C26.3841 27.8469 26.1283 27.3612 25.9888 26.8159C25.9005 26.4676 26.1004 26.2339 26.3934 26.0598C27.8256 25.2029 28.1185 24.6576 27.8116 23.0675C27.4954 21.4362 27.1281 19.814 26.7142 18.2011C26.5747 17.6512 26.2678 17.1242 25.947 16.6477C24.631 14.7002 22.8501 13.0139 20.8041 12.1203C18.2884 11.0205 16.4656 9.20593 14.4196 7.61586C13.0665 6.56651 11.9226 5.30178 10.7973 4.00498C10.4067 3.55591 9.67199 2.57071 9.02564 1.42054C9.00704 1.42054 9.00704 1.42054 8.99309 1.4297C8.95124 2.72651 10.8298 5.15515 11.3785 6.17242C11.3878 6.19075 11.3646 6.2045 11.3506 6.19534C8.78384 4.13328 6.21239 2.06665 3.64094 1.43e-05C3.62699 -0.00915038 3.60839 1.43009e-05 3.61304 0.0183437C4.31519 2.94188 7.14704 3.88125 8.97914 5.77834C8.99309 5.79209 8.97914 5.815 8.95589 5.80584C6.05894 4.52736 3.74324 2.27744 0.68819 0.843165C0.67424 0.838582 0.65564 0.852329 0.66029 0.866076C1.12994 2.26827 2.14364 2.97395 3.08759 3.70254C3.99434 4.40364 4.97084 5.02226 5.87759 5.74627C5.89154 5.76001 5.87759 5.78293 5.85899 5.77834C3.93854 5.13682 2.18084 4.06913 0.0232402 3.59257C0.00464026 3.59257 -0.00465974 3.6109 0.00464025 3.62464C0.71609 4.50904 1.44614 5.10932 2.25524 5.6088C3.02714 6.08078 3.84554 6.47944 4.62674 6.95142C4.64534 6.96059 4.63139 6.98808 4.61279 6.98808C3.18524 6.71772 1.92044 5.85624 0.22784 5.83791C0.21389 5.83791 0.20459 5.85624 0.21389 5.86999C1.71119 7.51047 3.60839 8.19324 5.40794 9.0593C5.42654 9.06846 5.41724 9.09596 5.39399 9.09137C4.31054 8.8256 3.21779 8.55982 1.89719 8.23448C1.87859 8.23448 1.86929 8.24822 1.87859 8.26197C3.16664 9.99868 4.86389 10.6035 6.84944 11.2405C6.84944 11.2588 6.84944 11.2542 6.84944 11.2726C6.35189 11.3688 6.08684 11.4971 6.05429 11.6712C6.02639 11.8179 6.15659 11.9645 6.42164 12.1845C7.45859 13.0459 8.24444 13.0688 8.38394 13.6141C8.45369 13.8891 8.47229 13.9532 8.37464 14.2511C8.24444 14.6452 8.98379 14.8056 9.34649 15.0438C9.83474 15.3646 10.5322 15.4654 10.3369 16.3544C10.2486 16.7714 10.7833 16.9134 11.0949 17.0967C12.2992 17.8024 13.5594 18.5172 13.8616 19.979C14.1499 21.3766 15.3496 22.2473 15.7588 23.5578C15.8379 23.8098 16.0006 24.0161 15.9448 24.3185C15.903 24.5384 15.9076 24.8638 16.0425 24.9967C16.6516 25.597 17.3631 26.0552 17.3817 27.0954C17.391 27.5032 18.1489 27.3932 18.586 27.4345C18.9859 27.4757 19.4742 27.5261 19.2649 28.0531C18.7348 29.3866 19.5811 29.3453 20.4553 29.272C20.4646 29.272 20.4739 29.2812 20.4739 29.2903C20.4228 30.5321 20.6506 30.7383 21.8503 30.4313C22.3014 30.3168 22.2874 30.5963 22.3572 30.7842C22.5618 31.3478 22.6687 31.9297 22.8733 32.4934C22.9896 32.8096 23.4034 32.892 23.6313 32.6446C23.8219 32.4338 24.1707 32.498 24.2776 32.7592C24.352 32.947 24.3799 33.1487 24.4311 33.3365C24.6543 34.2163 24.8031 35.142 26.133 34.0972C26.1469 34.088 26.1655 34.0972 26.1609 34.1109C26.0632 35.1053 26.2492 35.8064 26.7375 36.4571C26.9002 36.6679 26.8584 36.7595 26.863 36.8008C26.8863 37.2315 26.3608 37.7172 25.9795 37.6531C25.7982 37.621 25.7796 37.4835 25.5099 37.2315C24.6729 36.4479 23.794 36.0493 23.2732 37.2315C23.2639 37.2498 23.2732 37.2636 23.2965 37.2544C23.6452 37.1353 24.0079 37.0803 24.2218 37.1628C24.3241 37.1994 24.3706 37.2819 24.3939 37.3507C24.4497 37.511 24.3985 37.6852 24.1567 37.7768C23.6127 37.983 23.0686 38.0655 22.9524 38.8445C22.9524 38.8674 22.9617 38.8674 22.9663 38.8674C23.0965 38.8033 24.5101 38.1342 25.1472 38.6795C25.3099 38.817 25.3983 38.982 25.4169 39.0186C25.7145 39.6464 25.3053 40.4621 25.2541 40.4483C25.203 40.4391 25.4308 39.6281 24.8449 39.2615C23.9521 38.7024 22.8873 40.3567 21.2226 42.4783C20.9761 42.7945 20.646 43.2665 21.1761 43.743C21.9061 44.4029 24.7008 41.5023 24.7519 41.4656C24.7054 41.5389 23.2918 43.4727 22.971 43.853C22.7524 44.1875 22.4176 44.6732 22.8408 45.0673C22.8408 45.0673 22.971 45.2185 23.1802 45.2506C23.8824 45.356 24.3613 44.6824 25.3797 43.6101C25.3936 43.5964 25.4169 43.6101 25.4076 43.6285C25.1658 44.0913 24.91 44.5449 24.6961 45.0169C24.4311 45.608 24.4822 46.1487 25.2541 46.245C26.4631 46.3962 27.4861 47.0056 28.4905 47.5647C28.9509 47.8213 29.3554 47.9634 29.7553 47.9863C30.1552 47.9634 30.5598 47.8167 31.0201 47.5647C32.0245 47.0056 33.0475 46.3962 34.2565 46.245C35.0284 46.1487 35.0796 45.608 34.8145 45.0169C34.6053 44.5403 34.3495 44.0867 34.1077 43.6285C34.0984 43.6101 34.1217 43.5918 34.1356 43.6101C35.1586 44.6778 35.6376 45.3514 36.3351 45.2506C36.549 45.2185 36.6745 45.0673 36.6745 45.0673C37.0977 44.6686 36.7629 44.1875 36.5443 43.853C36.2235 43.4727 34.8052 41.5389 34.7634 41.4656C34.8099 41.4977 37.6092 44.4029 38.3392 43.743C38.8693 43.2665 38.5392 42.7899 38.2927 42.4783C36.628 40.3567 35.5632 38.7024 34.6704 39.2615C34.0891 39.6235 34.3123 40.4346 34.2612 40.4483C34.21 40.4621 33.8008 39.6464 34.0984 39.0186C34.117 38.982 34.2054 38.817 34.3681 38.6795C35.0052 38.1342 36.4188 38.8033 36.549 38.8674C36.549 38.8674 36.5676 38.8674 36.5629 38.8445C36.4467 38.0701 35.9026 37.983 35.3586 37.7768C35.1168 37.6852 35.0656 37.511 35.1214 37.3507C35.1447 37.2819 35.1912 37.1994 35.2935 37.1628C35.512 37.0803 35.8747 37.1353 36.2235 37.2544C36.2421 37.2636 36.2514 37.2544 36.2467 37.2315C35.7259 36.0447 34.8471 36.4434 34.0101 37.2315C33.7357 37.4835 33.7218 37.6256 33.5404 37.6531C33.1638 37.7172 32.6383 37.2315 32.6569 36.8008C32.6569 36.7595 32.6197 36.6679 32.7778 36.4571C33.2707 35.8018 33.4567 35.1053 33.3544 34.1109C33.3544 34.0972 33.373 34.0834 33.3823 34.0972C34.7122 35.1374 34.861 34.2118 35.0842 33.3365C35.1307 33.1487 35.1633 32.947 35.2377 32.7592C35.34 32.498 35.6887 32.4338 35.884 32.6446C36.1119 32.8966 36.5257 32.8096 36.6373 32.4934C36.8419 31.9297 36.9489 31.3478 37.1535 30.7842C37.2232 30.5963 37.2093 30.3168 37.6603 30.4313C38.86 30.7383 39.0879 30.5367 39.0367 29.2903C39.0367 29.2812 39.046 29.272 39.0553 29.272C39.9295 29.3407 40.7758 29.3866 40.2457 28.0531C40.0365 27.5261 40.5247 27.4757 40.9246 27.4345C41.3617 27.3932 42.1197 27.5032 42.129 27.0954C42.1522 26.0552 42.859 25.597 43.4682 24.9967C43.603 24.8638 43.603 24.5384 43.5658 24.3185C43.51 24.0161 43.6728 23.8144 43.7518 23.5578C44.161 22.2473 45.3607 21.3766 45.649 19.979C45.9513 18.5172 47.2114 17.7978 48.4158 17.0967C48.732 16.9134 49.2667 16.7714 49.1737 16.3544C48.9784 15.4654 49.6806 15.3646 50.1642 15.0438C50.5269 14.8056 51.2662 14.6452 51.136 14.2511C51.0384 13.9532 51.057 13.8891 51.1267 13.6141C51.2662 13.0688 52.0521 13.0459 53.089 12.1845C53.3541 11.9645 53.4843 11.8179 53.4564 11.6712C53.4238 11.4971 53.1541 11.3688 52.6612 11.2726C52.6612 11.2542 52.6612 11.2588 52.6612 11.2405C54.6468 10.6035 56.344 9.99868 57.6321 8.26197C57.6414 8.24822 57.6321 8.22989 57.6135 8.23448C56.2975 8.55524 55.2001 8.8256 54.1167 9.09137C54.0981 9.09137 54.0841 9.06846 54.1027 9.0593C55.9069 8.18865 57.7995 7.50589 59.2968 5.86999C59.3061 5.86083 59.2968 5.83791 59.2828 5.83791C57.5902 5.85624 56.3254 6.71772 54.8979 6.98808C54.8793 6.98808 54.8653 6.96517 54.8839 6.95142C55.6651 6.47944 56.4835 6.08078 57.2554 5.6088L57.2647 5.60421ZM30.4389 32.5438C30.2157 33.2907 30.0064 34.0468 29.76 34.9312C29.5135 34.0468 29.3043 33.2953 29.0811 32.5438C28.9602 32.1314 29.0578 31.8014 29.4066 31.5632C29.5228 31.4853 29.6391 31.4303 29.7553 31.3982C29.8762 31.4303 29.9925 31.4853 30.1041 31.5632C30.4575 31.8014 30.5551 32.1314 30.4296 32.5438H30.4389Z" fill="white"/>
<g id="Group">
<path id="Vector_2" d="M58.9713 27.9569H63.691V29.2857H58.9713C58.0366 29.2857 57.2415 28.9604 56.5858 28.3143C55.9302 27.6682 55.6 26.8846 55.6 25.9635C55.6 25.0425 55.9302 24.2589 56.5858 23.6128C57.2415 22.9667 58.0366 22.6413 58.9713 22.6413H62.1751V23.9702H58.9713C58.4086 23.9702 57.9343 24.1627 57.5391 24.5522C57.1438 24.9417 56.9485 25.4091 56.9485 25.9635C56.9485 26.518 57.1438 26.99 57.5391 27.3749C57.9343 27.7644 58.4086 27.9569 58.9713 27.9569Z" fill="white"/>
<path id="Vector_3" d="M64.6722 29.2857H63.3237V22.6413H68.0434C68.6061 22.6413 69.0804 22.8338 69.4756 23.2233C69.8709 23.6128 70.0662 24.0802 70.0662 24.6347C70.0662 25.1891 69.8709 25.6611 69.4756 26.046C69.0804 26.4355 68.6061 26.628 68.0434 26.628H67.7505L70.7404 31.9435H69.2245L65.5138 25.2991H68.0434C68.2341 25.2991 68.3922 25.2349 68.5224 25.1066C68.6526 24.9783 68.7177 24.8225 68.7177 24.6347C68.7177 24.4468 68.6526 24.291 68.5224 24.1627C68.3922 24.0344 68.2341 23.9702 68.0434 23.9702H64.6722V29.2857Z" fill="white"/>
<path id="Vector_4" d="M73.8699 29.2857C72.9352 29.2857 72.1401 28.9604 71.4844 28.3143C70.8288 27.6682 70.4986 26.8846 70.4986 25.9635C70.4986 25.0425 70.8288 24.2589 71.4844 23.6128C72.1401 22.9667 72.9352 22.6413 73.8699 22.6413C74.8045 22.6413 75.5997 22.9667 76.2553 23.6128C76.911 24.2589 77.2411 25.0425 77.2411 25.9635C77.2411 26.8846 76.911 27.6682 76.2553 28.3143C75.5997 28.9604 74.8045 29.2857 73.8699 29.2857ZM73.8699 27.9569C74.4325 27.9569 74.9068 27.7644 75.3021 27.3749C75.6973 26.99 75.8926 26.518 75.8926 25.9635C75.8926 25.4091 75.6973 24.9417 75.3021 24.5522C74.9068 24.1673 74.4325 23.9702 73.8699 23.9702C73.3072 23.9702 72.8329 24.1627 72.4377 24.5522C72.0424 24.9417 71.8471 25.4091 71.8471 25.9635C71.8471 26.518 72.0424 26.99 72.4377 27.3749C72.8329 27.7644 73.3072 27.9569 73.8699 27.9569Z" fill="white"/>
<path id="Vector_5" d="M82.1701 25.432L80.1474 29.6157L76.7761 22.6368H78.292L80.1474 26.4584L81.4122 23.8511L82.1701 22.3022L82.9281 23.8511L84.1929 26.4584L86.0482 22.6368H87.5641L84.1929 29.6157L82.1701 25.432Z" fill="white"/>
<path id="Vector_6" d="M93.9253 29.2857H85.4949L86.1691 27.9569H93.9253C94.116 27.9569 94.2741 27.8927 94.4043 27.7644C94.5345 27.6361 94.5996 27.4803 94.5996 27.2924C94.5996 27.1045 94.5345 26.9487 94.4043 26.8204C94.2741 26.6921 94.116 26.628 93.9253 26.628H91.2283C90.6657 26.628 90.1914 26.4355 89.7961 26.046C89.4009 25.6611 89.2056 25.1891 89.2056 24.6347C89.2056 24.0802 89.4009 23.6128 89.7961 23.2233C90.1914 22.8384 90.6657 22.6413 91.2283 22.6413H95.6133V23.9702H91.2283C91.0377 23.9702 90.8796 24.0344 90.7494 24.1627C90.6192 24.291 90.5541 24.4468 90.5541 24.6347C90.5541 24.8225 90.6192 24.9783 90.7494 25.1066C90.8796 25.2349 91.0377 25.2991 91.2283 25.2991H93.9253C94.488 25.2991 94.9623 25.4916 95.3575 25.8811C95.7528 26.2706 95.9481 26.7379 95.9481 27.2924C95.9481 27.8469 95.7528 28.3189 95.3575 28.7038C94.9623 29.0933 94.488 29.2857 93.9253 29.2857Z" fill="white"/>
<path id="Vector_7" d="M98.0034 24.6347V29.2857H96.6549V22.6413H98.0034L102.049 27.2924V22.6413H103.397V29.2857H102.049L98.0034 24.6347Z" fill="white"/>
<path id="Vector_8" d="M111.47 22.6413L110.795 23.9702H106.076V27.9569H113.492L112.818 29.2857H104.727V22.6413H111.47ZM114.167 26.628H107.424V25.2991H114.841L114.167 26.628Z" fill="white"/>
<path id="Vector_9" d="M121.035 29.2857H112.604L113.279 27.9569H121.035C121.225 27.9569 121.384 27.8927 121.514 27.7644C121.644 27.6361 121.709 27.4803 121.709 27.2924C121.709 27.1045 121.644 26.9487 121.514 26.8204C121.384 26.6921 121.225 26.628 121.035 26.628H118.338C117.775 26.628 117.301 26.4355 116.906 26.046C116.51 25.6611 116.315 25.1891 116.315 24.6347C116.315 24.0802 116.51 23.6128 116.906 23.2233C117.301 22.8384 117.775 22.6413 118.338 22.6413H122.723V23.9702H118.338C118.147 23.9702 117.989 24.0344 117.859 24.1627C117.729 24.291 117.664 24.4468 117.664 24.6347C117.664 24.8225 117.729 24.9783 117.859 25.1066C117.989 25.2349 118.147 25.2991 118.338 25.2991H121.035C121.597 25.2991 122.072 25.4916 122.467 25.8811C122.862 26.2706 123.058 26.7379 123.058 27.2924C123.058 27.8469 122.862 28.3189 122.467 28.7038C122.072 29.0933 121.597 29.2857 121.035 29.2857Z" fill="white"/>
<path id="Vector_10" d="M127.303 23.9702V31.9435H125.954V23.9702H122.583V22.6413H130V23.9702H127.303Z" fill="white"/>
</g>
</g>
<defs>
<clipPath id="clip0_4_1898">
<rect width="130" height="48" fill="white"/>
</clipPath>
</defs>
</svg>
